# xmcd
#
# Track frame offsets:
#	150
#	16670
#	30420
#	47052
#	63897
#	79036
#	99500
#	114549
#	130176
#	152200
#	177388
#	192841
#	212341
#	230348
#	247754
#	265987
#	288428
#	301506
#	319725
# Disc length: 4462 seconds
# Revision: 1
# Processed by: cddbd v1.5.1PL0 Copyright (c) Steve Scherf et al.
#
# Submitted via: libkcddb 0.10
#
DISCID=eb116c13
DTITLE=Brooks and Dunn - How long Gone
DYEAR=1900
DGENRE=
TTITLE0=How Long Gone
TTITLE1=
TTITLE2=
TTITLE3=
TTITLE4=
TTITLE5=
TTITLE6=
TTITLE7=
TTITLE8=
TTITLE9=
TTITLE10=
TTITLE11=
TTITLE12=
TTITLE13=
TTITLE14=
TTITLE15=
TTITLE16=
TTITLE17=
TTITLE18=
EXTD=
EXTT0=
EXTT1=
EXTT2=
EXTT3=
EXTT4=
EXTT5=
EXTT6=
EXTT7=
EXTT8=
EXTT9=
EXTT10=
EXTT11=
EXTT12=
EXTT13=
EXTT14=
EXTT15=
EXTT16=
EXTT17=
EXTT18=
PLAYORDER=
